/* XPM */
static char * bottom_right_active_xpm[] = {
"40 10 5 1",
" 	c None",
".  c #000000",
"#  c #ffffff",
"+  c #EAEAEA",
"@	c #888888",
"........................................",
"@+++++++++++++++++++++++++++++++++++++@.",
"@+++++++++++++++++++++++++++++++++++++@.",
"@+++++++++++++++++++++++++++++++++++++@.",
"@+++++++++++++++++++++++++++++++++++++@.",
"@+++++++++++++++++++++++++++++++++++++@.",
"@+++++++++++++++++++++++++++++++++++++@.",
"@+++++++++++++++++++++++++++++++++++++@.",
"@@@@@@@@@@@@@@@@@@@@@@@@@@@@@@@@@@@@@@@.",
"........................................"};
