/* XPM */
static char * bottom_left_inactive_xpm[] = {
"40 10 5 1",
" 	c None",
".	c #000000",
"#	c #888888",
"+	c #666666",
"@	c #444444",
"........................................",
".#++++++++++++++++++++++++++++++++++++++",
".#++++++++++++++++++++++++++++++++++++++",
".#++++++++++++++++++++++++++++++++++++++",
".#++++++++++++++++++++++++++++++++++++++",
".#++++++++++++++++++++++++++++++++++++++",
".#++++++++++++++++++++++++++++++++++++++",
".#++++++++++++++++++++++++++++++++++++++",
".#@@@@@@@@@@@@@@@@@@@@@@@@@@@@@@@@@@@@@@",
"........................................"};
