/* XPM */
static char * menu_pressed_xpm[] = {
"35 32 4 1",
" 	c None",
".	c #000000",
"+	c #5B80AD s active_color_1",
"=	c #729CCD s active_text_color",
"...................................",
"+++++++++++++++++++++++++++++++++++",
"+++++++++++++++++++++++++++++++++++",
"+++++++++++++++++++++++++++++++++++",
"+++++++++++++++++++++++++++++++++++",
"+++++++++++++++++++++++++++++++++++",
"+++++++++++++++++++++++++++++++++++",
"+++++++++++++++++++++++++++++++++++",
"+++++++++++++++++++++++++++++++++++",
"+++++++++++++++++++++++++++++++++++",
"++++++++++++==+++++++==++++++++++++",
"++++++++++++===+++++===++++++++++++",
"+++++++++++++===+++===+++++++++++++",
"++++++++++++++===+===++++++++++++++",
"+++++++++++++++=====+++++++++++++++",
"++++++++++++++++===++++++++++++++++",
"+++++++++++++++=====+++++++++++++++",
"++++++++++++++===+===++++++++++++++",
"+++++++++++++===+++===+++++++++++++",
"++++++++++++===+++++===++++++++++++",
"++++++++++++==+++++++==++++++++++++",
"+++++++++++++++++++++++++++++++++++",
"+++++++++++++++++++++++++++++++++++",
"+++++++++++++++++++++++++++++++++++",
"+++++++++++++++++++++++++++++++++++",
"+++++++++++++++++++++++++++++++++++",
"+++++++++++++++++++++++++++++++++++",
"+++++++++++++++++++++++++++++++++++",
"+++++++++++++++++++++++++++++++++++",
"+++++++++++++++++++++++++++++++++++",
"+++++++++++++++++++++++++++++++++++",
"..................................."};
