/* XPM */
static char * maximize_pressed_xpm[] = {
"30 32 4 1",
" 	c None",
".	c #000000",
"+	c #5B80AD s active_shadow_1",
"=	c #729CCD s active_text_color",
"..............................",
"++++++++++++++++++++++++++++++",
"++++++++++++++++++++++++++++++",
"++++++++++++++++++++++++++++++",
"++++++++++++++++++++++++++++++",
"++++++++++++++++++++++++++++++",
"++++++++++++++++++++++++++++++",
"++++++++++++++++++++++++++++++",
"++++++++++++++++++++++++++++++",
"++++++++++++++++++++++++++++++",
"+++++++================+++++++",
"+++++++================+++++++",
"+++++++================+++++++",
"+++++++=++++++++++++++=+++++++",
"+++++++=++++++++++++++=+++++++",
"+++++++=++++++++++++++=+++++++",
"+++++++=++++++++++++++=+++++++",
"+++++++=++++++++++++++=+++++++",
"+++++++=++++++++++++++=+++++++",
"+++++++=++++++++++++++=+++++++",
"+++++++=++++++++++++++=+++++++",
"+++++++=++++++++++++++=+++++++",
"+++++++=++++++++++++++=+++++++",
"+++++++================+++++++",
"++++++++++++++++++++++++++++++",
"++++++++++++++++++++++++++++++",
"++++++++++++++++++++++++++++++",
"++++++++++++++++++++++++++++++",
"++++++++++++++++++++++++++++++",
"++++++++++++++++++++++++++++++",
"++++++++++++++++++++++++++++++",
".............................."};
